/* XPM */
static char * tyrian_xpm[] = {
"128 128 63 1",
" 	c None",
".	c #181818",
"+	c #282828",
"@	c #343434",
"#	c #787878",
"$	c #8C8C8C",
"%	c #444444",
"&	c #5C5C5C",
"*	c #505050",
"=	c #686C68",
"-	c #A0A4A0",
";	c #0C0C0C",
">	c #E4E4E4",
",	c #CCCCCC",
"'	c #402C18",
")	c #644820",
"!	c #4C3828",
"~	c #B8B8B8",
"{	c #70542C",
"]	c #7C6438",
"^	c #543C18",
"/	c #1C1000",
"(	c #988054",
"_	c #482C10",
":	c #8C7044",
"<	c #FCC8C0",
"[	c #E4DCC4",
"}	c #CCC09C",
"|	c #B4A078",
"1	c #302010",
"2	c #584438",
"3	c #8C382C",
"4	c #C46458",
"5	c #541C10",
"6	c #7C2C20",
"7	c #B05448",
"8	c #A04438",
"9	c #382408",
"0	c #2C1804",
"a	c #A89064",
"b	c #441408",
"c	c #E8A094",
"d	c #F4B4A8",
"e	c #D4786C",
"f	c #E08C80",
"g	c #F8FCFC",
"h	c #682418",
"i	c #380000",
"j	c #840400",
"k	c #B80C00",
"l	c #D01400",
"m	c #9C0800",
"n	c #E88818",
"o	c #FCF894",
"p	c #F8C830",
"q	c #E4600C",
"r	c #FCFCF0",
"s	c #F0AC24",
"t	c #DC3C00",
"u	c #FCE43C",
"v	c #6C0400",
"w	c #6C5444",
"x	c #7C6854",
"                                                                                                                                ",
"                                                                                                                                ",
"                                                                                                                                ",
"                                                                                                                                ",
"                                                                                                                                ",
"                                                                                                                                ",
"                                                                                                                                ",
"                                                                                                                                ",
"                                                                                                                                ",
"                                                                                                                                ",
"                                                                                                                                ",
"                                                                                                                                ",
"                        ..+.                                                                       +@@@                         ",
"                        .#$%..                                                                   +@&$&@                         ",
"                        .&$&*@..                                                               +@*=#-*@                         ",
"                      ...&$*&%*%.;                        ;.........;                        .@&==#&-*@..                       ",
"                      .@.&$%*@*&&;..                    ;;=->,-###=*%;;                    +@+##=*&&-*@'.                       ",
"                 ......=.&$%*.@@=+)!..                 ;@*&$~#=====&&*@;                 +@{]%$***&&-*@^......                  ",
"               ./^){](_-.&$%*.+@%+){{+..              .@%*&#-#=#===&&*%@.              +@%::]%&***&&-*@)/'^^^^..                ",
"              .^)^...^/&.#-~&.+@@+'')+=@..           ;@%%*&&&<<[}(&&&*%%@;           +@*$%]))%****$$~*@)/^...^)^.               ",
"             .)^..   ..&.&=#*.++++'''+#+{+..         ;=*%*&&'}|||:!&&*%*=;         +@%:%-%)))%%%%%#=$*@{/.   ..^).              ",
"            .)^;      ...*=#*.11''@''+*+(+&%..       +$*@+@@1}|||:''1++.#+       +@&#%|%=%)))))))%#=$*@/.      ;^).             ",
"           .)^;        ..*=#*.1'!!!!!+%+)+#$=&.      ++]|}[[}||||(::]]]2.+      +=$~-%]%&%{{{{{{{%#=$*@.        ;^).            ",
"          .{^;          .*=#*.++@@@@@@%+!@%*#~.    .;]|}|((((|||||(:]{{{2!;.    +,-=&*{%&******%%%#=$*@          ;^{.           ",
"         .{);           .*=#*+@%%%%%%%%@!@%%%$.  ;.{(|((]{]:(|||||(:]{{{2!'!..  +-*&&*{*&&&&&&&&&*#=$*@           ;){.          ",
"         _{/            .*&=*+@%%%%%%%%@!@%%%#. .!]:]{]:{{]:(|||||(:]{{{2!'!2!. ;$**&*{*&&&&&&&&&%#=$*@            .{@          ",
"        .{).            .%*&*.++@@@@@@@@!@@@@=. .2]{{{]:{{]:(|||||(:]{{{2!'!(!; ;%%%%%{********%%%#=#%+            .){.         ",
"        +]@              +@*&@!)){!!!!!!!!!!!=...'!2{{22'''@@@@@@@@''''22!'!|!.;;^')))){{{{{{#===&#=*+              '{.         ",
"       .)(.               .++.+++')!!!!!!!!!!{)%.'!2!'''''@@@+.11+@@@++11!'!:!.;;''^^))){{{{=*%%%+@@+               .].         ",
"       .]|.                ..;.+++++@@@@@!!!!))%+''''1%%*****%13!1&*%%@@+11!{!.;;1''^^%%%**%%%%%+.++                .:'.        ",
"       .{|!.                   .++.*$=&*@))))))%@+1.'%*******%'43'=*%%@@@+..@;.;;11''^@$#==*@%%+                   .!]'.        ",
"       .2}{2..                  ..++@&**@))))))%%@++%********%@3!@=*%%@@@+.;.;.;;111''@&&&%%%@+                  ..){!'.        ",
"       .'}{[{1;.                 ;+++@&*@@@@%%%%*@++**&==&:{~~]<}{$$)]{&%@+.;..;;;;;.+@**%@@%.                 ..'){^''.        ",
"        .:!|(]'';.                .+++@+*********@1&:#$>,*{^#${{{{#=)]],=*@'..;.++++++@+@+@@+                ..'^)^'''..        ",
"        .]!:]]:{'1..               .++;+&&*@@@@**^]]:]~-,*{^!)))))^^!{{-*&1'^/;;;;;;.+@+;+++               ..'^)^'''''/         ",
"        .@5'6]]]:{'1..              .;++@&&@@%%)1)){]:~-,*{]^*&===&^{{{$*&1'^';;;;..''+..;.              ..'^)^'''1111.         ",
"        ;65556]]]]:)''..             ;+++=&+@%^1^^){]:~-,*{]^*&===&){{{$*&1'^'1;;;..!1...;             ..'^)^''''1+563.         ",
"        .73333@{]]]]])!';.            .++=&+@%'''^)^){-$$*{]](((((:]{{{*%&;/1'11;;..21;..            ..'))^'''''116338.         ",
"        .433333+{{:]]]]{9'..           .+=&+@%11'^']((--~*{]!))))))){{{-&*1''/1';;..2'..           ..^_0)''''''1163338.         ",
"        .433375*%{]){]]]^]^'..          .#&+@%1111{:::~-,*{!^&&&&&&*^{{#*&1'^1/1;;..{!.          ..'))^'''''''1.633338.         ",
"        .4338@&**%]))){]^a:)^_./        +#=+@%11/)]{]:~-,*{^#$$$$$#=^{{#*&1'^'1;;;..{2.        ..'){^''''''''1+%@83338.         ",
"        .4338@=***])))))^:]::)!)..      +$#+@%1/'{){]:~-,*{^=#####=&^{{#*&1'^'1^;;..]{.      ..'){)''''''''''1@**%8338.         ",
"        .7337@=***])))))^){]]((]'_..    .-#+@%1/)^){]:~-,*{%&&=&*%@%^){#*&1'^'1];;..]{.    ..'{]{'11'''''''''1@*=%838b.         ",
"        .3337@#***])))))^)){]]:|}:)).....$#.;b/'^^){]:~-,%^7cdc483!'+))#*&1'^'1:;;;;:].....!]:])/111'''''''''1@*#*48bb.         ",
"         ;656.*@@@]))^^^^))){]::([[|:(((((:].b;^'^){]:~-~+7ed<df73!'1+^#*&1'^'1:;b5]:::::]:(:)///111'''''''''/+@%+6bb.          ",
"          ;55.@@@@]))^)))))){{]:((}|:{)))))).b;''^){]{$$#@7efcfe83!'11.&==1'^'1];b5{)))))){{'////111'''''''''/+++.6b;           ",
"           ;.;;;..)))^)))))){{]]:(}:]))))))).b/1'^)]{^11./383e73''111/;..11'^'1{.b5{))))))){^////111''''''''1.....+.            ",
"                  ;^)^)))))){{]]:(a)......../;/1'^{)^'/;;.1'->-==*%+/.;;;//1''1^.b51111111/{^////111'''''''1.                   ",
"                   ;^^)))))){{]]:(a).......+5./1')'11//;;;+#>g~=&@+%+.;;;;///111.b5b111111/{^////111''''''1.                    ",
"                    ;_)))))){{]]:(a).++++5655b//''+111/.;;%=-,$=*@++*+;;;;;////..b5566.%.%.{^////111'''''1;                     ",
"                     ;^)'^^^^^)){]{^.+@%633655b;bb55555b.;%*=-=&%@++&@.;;;;///./bb5633+*+%.'/;;;;///1111/;                      ",
"                      ;^'))){{]]:(a).+@%6336666.b5666666b.%%&#&*%@++*@.;;;;..bbb566633@*@%.{^////111'''1;                       ",
"                       ;1))){{]]:(a).++@%633333.b56633336@%%*&**%@++%@+;;;;..bb563333%%%@+.{^////111''1;                        ",
"                        ;^)){{]]:(|).+@%*%!!!h!.b5/{[((((((((.%*%[(((((((((^;bb5h!!!!%***%.{^////111'1;                         ",
"                         ;^){{]]:(}).++@*%))))!+b.::a]]]]]]]]/+@%(]]]]]]]:|{^;b5h))))%*!''.{^////1111;                          ",
"                          ;^){]]:|}^.+@@*%%%%)!+;:::a]]]]]]]]..+@(]]]]]]]:|{{';5h)%%%%*!)!.{^////11/;                           ",
"                           ;^){]([|^.+@@*%**%)'/(:::a]]]]{^;;;;;;;;;@){]]:|{{)';')%**@*!)!.2'////1/;                            ",
"                            ;^){(|^_.11'!%**%);((::(a(:]{^1;ijkllj;.;;'){:|]{))';)%**+%%@+.!'/////.                             ",
"                             ._^2{_1;1!))%**%/(((:(a]]]{^';.mnopnqm.+.;')]]({)))';%**+***%;''///;;                              ",
"                              .1^^1;1'!))%**;(((((a{...+@%;.lrrosqk.+%.;...{:))))';**.****+;'1;/;                               ",
"                               ;_@;.+'@%%%*.(((((a);@@.+@%;.tuousql.+*@;;;;+)]))))';*;%%@@+.;1..                                ",
"                                .;+@%%***%.]((((a{;@@@.+@%;.jtssnlj.+**+;;;;+){)))^';.*****@+;;                                 ",
"                                .@@%*****.::(((a:+@@@@.+@%..+vmmkj+@+*=@.;;+.1){)))^';****%@+..                                 ",
"                                .@%*%%%*.((:((a:.@@@@@.+@%+cee@+@c47;@=@.;;.@+1){))^_^.*%%@@+..                                 ",
"                                .+%@@%%.(((:(a:;+@@@@@.+@+8477/+'e77!;*@.;;;+@+.)))^_^^.%%@+...                                 ",
"                                ....++;](((:]{/.+@@@@..++88477/+'477!!;@.;;;.+@+.{^^_^^^;++....                                 ",
"                    .......      ..;.;(::(((((;;+@@@.''+888477.+@477!3'/+';;;+@@.^___^^_^;/;..      .......                     ",
"                   ..&$,$=+........//(((::((((;;.+@@.8!88%843*.+@*371_3''8;;;.+@.])^^^_^^^////......+=$,$&..                    ",
"                   .@@@$==&**@%***|((((((:::]);;;.+@.788^_843$.+@$871__337;;;;+@.:)^^_^^^){]]'^*&*#$===$@@@.                    ",
"                 ..+@@@$==&**@%***((::::((((((;;;;.+.e7^__843=.+@#871^__34.;;;.+.]^__^^^)){]]'%*&*#$===$@@@+..                  ",
"                 .&==$$-->&**@%***&(:::::(((((;;;;;+.f8_^_8433.+@&371^^_37;;;;;+.:)^^^^)){{]]@%*&*#$=>--$$==&.                  ",
"                 .&66374e,&**&=====&(::::::((:;;;;;..78^^_8477.+@477'_^^!7;;;;;..])^^^)){{]])@@%%*#$=,e47366&.                  ",
"                 .=56374e~&**&======&(::::::{^/     .8^^_88477.+@477!3_^'8.     /{))))){{]]*&&====#$=~e47365=.                  ",
"                 .#56374e~&**&======&&(:::::^/      .31_{88477.+@e77!33_13.      /)))){{]]%&&=====#$=~e47365#.                  ",
"                 .#56374e~&**&======*=&(::::/       .!/888!'''.+@3'''333/'.       /{{{{]]*%&======#$=~e47365#.                  ",
"                 .=56374e~&**&======*={(::::.       .'/88!''''.++3''''33/+.       /{{]]]*&*=======#$=~e47365=.                  ",
"                 .&56374e-*@%***%===*=&(::::.       .@/8!'1....+++//1''3/..       /]]]])&&*===%******-e47365&.                  ",
"                 .&&&=#$-~=(((((%==*@**](:::.        ..!'1.+++++++...1''..        .]]]]%&=%===%(((((]~-$#=&&&.                  ",
"                 ..;......=((:::@=%%+%%%](::/         .'+...+++++.....++.         .]]]].@@@*&=@:::((]......;..                  ",
"                   ;%@@%*&&(((:]@%@....@^)));         .;;....+++....+..;.         .]]]11..;.*&@]:((({&*%@@%;                    ",
"                   ;*&====&((((]+@;    ;%)));          ;;;............;.          .^^^1/    .%+](((({====&*;                    ",
"                  .#$$-~,,*((a:].;      .....          ;;;;.....;;;;;;;.          ..//.      ;.]:a((),,~-$$#.                   ",
"                  .&15637-*(a]^';                       ;;;;;&&&&*;;;;;                       ;@%]a()-73651&.                   ",
"                  .#1563$*%a]^'1.                        ;.;&#$=&&%;.;                        .+@%]a^*$3651#.                   ",
"                  .#156=%.%(^+1^.                   .    .;%=$-#&&&%;.    .                   .%++%(^.%=651#.                   ",
"                  .=15=%;@%:+.*&.                   ..   .%&&##=&&&&%.   ..                   .&*.+:^@;%=51=.                   ",
"                  .&%*@.*@%).+=#.                   +...;;%&&&&&&&&&%;...;+                   .#=+.)^@*.@*%&.                   ",
"                  .....@*%%^;+&$*.                  +%&&@*&&******&&&%**%@+                  .*$&+;^^%*@.....                   ",
"                   .&&*%&*%@.+%$#.                  +%&&%%***7777%%%%@**%@+                  .#$%+.@%*&%***.                    ",
"                   .===%&&*..+@#$*.                 +%&%&&&&*7777%&&&&%*%@+                 .*$#@+..*&&%***.                    ",
"                   .==$%@@.  .@%$#.                 .%%&&&&*{7777)^&&&&%@@.                 .#$%@.  .%%@***.                    ",
"                   ;**-***.   ;@*$&.                ;+*&&&*{{7777){%*&&*+@;                .&$*@;   .*****%.                    ",
"                   .&*-***.    ;@&$=.               ;.%*&%{{{7777^){%**%++;               .=$&@;    .===%%@.                    ",
"                   .w*-***.     ;@*#=..              ;@%@){{{7777'^))+@@+;              ..=#*@;     .==$!22.                    ",
"                   .x*=%@*.      .@%##*..            ;+@+^)))88881'^^^+++;            ..*##%@.      .==$%22.                    ",
"                   .x:[w@*.       .@%=#=%..           ;+/^^^^333311'''/.;           ..%=#=%@.       .=@&%22.                    ",
"                   .xx|2@*.        .;@%==&*..          ;/''''6666///11.;          ..*&==%@;.        .=*[x22.                    ",
"                   .xx|2@@.          ;;++%**%+.         .11115555;;;//;         .+%**%++;;          .%%(222.                    ",
"                   .xx|222.            .;.......         .111bbbb;;;/.         .......;.            .xx:222.                    ",
"                   .xx(222.                               ;.././/;;;;                               .xxx22!.                    ",
"                   .wx:222.                                ;;;;;;;;;                                .xxw22!.                    ",
"                   ;2x:222.                                                                         .xx222@.                    ",
"                   ;@x=w22@.                                                                       ;*xx22!+.                    ",
"                    ;wxw22%;                                                                       ;wxx22@.                     ",
"                    ;!xx222@;                                                                     .2xxw2!+.                     ",
"                     ;2xw222;                                                                     ;wxx22@.                      ",
"                     ;!wxw22!;                                                                   ;wxxw2!+.                      ",
"                      ;!xxw22!;                                                                 .2xxw2!+.                       ",
"                       ;@xxw22!;                                                               ;2xxw22@;                        ",
"                        ;@xxw22!;                                                             ;*xxw22@;                         ",
"                         ;@wxw22!;                                                           ;2wxw22@;                          ",
"                          ;+2xw222;                                                         ;*wxw22@;                           ",
"                           ;+!wxw22..                                                     .;*xw22!+;                            ",
"                            ;;@22xw22..                                                 ..2ww22!+;;                             ",
"                              .;;%222!2..                                             .;@%%%@+..;                               ",
"                                 ........                                             ........                                  ",
"                                                                                                                                ",
"                                                                                                                                ",
"                                                                                                                                ",
"                                                                                                                                ",
"                                                                                                                                ",
"                                                                                                                                ",
"                                                                                                                                ",
"                                                                                                                                ",
"                                                                                                                                ",
"                                                                                                                                ",
"                                                                                                                                ",
"                                                                                                                                "};
